<?xml version="1.0" encoding="UTF-8"?><svg id="Who_is_at_risk" xmlns="http://www.w3.org/2000/svg" viewBox="0 0 32 32"><defs><style>.cls-1{fill:#fff;}.cls-2{fill:#b87777;}.cls-3{fill:#d99898;}.cls-4{fill:#87bcb3;}</style></defs><g id="ic_acidity"><path id="Tracciato_26" class="cls-1" d="M14.54,4.99s.18,8.82-1.77,9.8c-1.94,.98-4.66,1.33-6.5,3.3s-.5,4.2-.5,4.2c0,0-1.19,1.07-.89,5.05l1.87,.41s-.26-2.23,.82-3.52c0,0,6.12,6.16,14.39-1.78s2.24-18.98-4.41-13.43l-.12-4.45-2.91,.42Z"/><path id="Tracciato_31" class="cls-4" d="M11.54,16.74c-1.16,.22-2.44,.27-4.17,1.64-1.62,1.63-.78,3.71,.48,4.81s5.9,4.05,11.34-.09c2.58-1.9,5.06-5.36,5.05-6.53,0,0-1-1.06-2.97-.85s-2.93,1.54-5.06,1.54-4.15-.55-4.69-.52Z"/><path class="cls-3" d="M22.86,10.6c.13,1.58-.1,1.78-1.91,4.39-.35,.5-.61,.97-.8,1.4-.77,1.72-.45,3.8,.89,5.12,.52,.51,1.11,.81,1.72,.93,1.36,.27,2.8-.34,3.73-1.33,1.74-1.87-.46-6.16-.46-6.16,0,0-.01,1.16-.74,1.61,0,0-.51,.05-.26-.62,0,0,.6-1.13-.22-2.89-.25-.54-.61-1.02-1.02-1.45l-.93-.99Z"/><path class="cls-2" d="M22.09,18.02s-1.48,1.8,.14,3.72c.51,.6,1.37,.85,2.07,.51,.41-.2,.81-.59,1.07-1.32,.39-1.09,.06-2.32-.78-3.12l-.04-.04c-1.06-1.01-.62-2.35-.62-2.35,0,0-1.69,1.14-1.17,3.52,0,0-.46,.05-.66-.91Z"/></g></svg>