<?xml version="1.0" encoding="UTF-8"?><svg id="Who_is_at_risk" xmlns="http://www.w3.org/2000/svg" viewBox="0 0 32 32"><defs><style>.cls-1{fill:#fff;}.cls-2{fill:#b53a3d;}.cls-3{fill:#d99898;}.cls-4{fill:#c46769;}.cls-5{fill:#bf5456;}.cls-6{fill:#c98c8c;}</style></defs><g id="ic_appendicitis"><path class="cls-1" d="M7.89,4.27c-.87,.9-2.91,3.71,1.32,7.12,.11,.09,.16,.25,.09,.38-.38,.75-1.44,3.36,.7,5.91,.1,.12,.14,.28,.08,.43-.35,.9-1.42,4.26,.75,6.35,.16,.16,.36,.26,.58,.32,.47,.14,1.38,.35,2.59,.35,.21,0,.48,1.14,1.2,1.91,.36,.39,.87,.75,1.63,.83,.88,.1,2.02-.12,2.52-.33,.83-.34,1.27-.83,1.33-1.17s-.02-.72-.77-.92-1.83,.81-2.46,.7c-.89-.15-.77-1.37-.65-1.4,.66-.17,1.25-.38,1.97-.72,.34-.16,.58-.47,.66-.84,.26-1.16,.57-3.8-1.2-5.99-.13-.16-.18-.38-.1-.57,.41-1.07,1.56-4.75-1.08-7.73-.1-.11-.14-.26-.1-.4,.23-.78,.8-3.54-1.73-5.14-.23-.15-.52-.2-.8-.17l-5.81,.71c-.27,.03-.52,.15-.71,.35Z"/><path class="cls-3" d="M8.23,5.28c.2-.18,.46-.29,.73-.33l5.42-.86c.21-.03,.42,0,.6,.12,.42,.27,2.14,3.5,.79,4.25-.21,.12-.28,.35,0,.94s.8-.31,1.81,2.53,.09,3.89-.29,4c-.41,.12-1.22,1.26-.32,1.63,1.23,.5,2.36,2.4,1.6,5.2,0,0-.63,1.59-3.62,1.83s-3.43-1.01-3.43-1.01c-.39-.69-1.39-2.8-.12-5.36,.15-.29,.24-.61-.55-1.19s-1.64-3.84-.62-4.49,.59-2.14-.6-2.06c-1.11,.07-2.91-3.79-1.38-5.22Z"/><path class="cls-6" d="M8.2,5.26c-1.53,1.43,.27,5.29,1.38,5.22,1.19-.08,1.62,1.41,.6,2.06s-.17,3.92,.62,4.49,.7,.9,.55,1.19c-1.27,2.56-.25,4.89,.23,5.52,.63,.83,1.95,.93,2.46,.9,0,0-.6-1.78-.6-3.26,0-1.72,.68-2.26,.38-4.04s-1.16-1.31-1.75-2.82c-.32-.83,.63-1.21,.24-3.57s-1.95-2.53-2.09-3.61-.1-2.57-.1-2.57c-1.65,.21-1.82,.4-1.92,.49Z"/><circle class="cls-4" cx="20.93" cy="18.26" r="5.47"/><circle class="cls-5" cx="20.93" cy="18.26" r="3.98"/><circle class="cls-2" cx="20.93" cy="18.26" r="2.47"/><path class="cls-6" d="M14.47,24.76s.19,.04,.87-.06,.98-.21,.98-.21c0,0-.19,1.31,.26,1.69s1.41,.42,2.36-.11,1.45-.1,1.33,.27-2.51,1.56-3.9,1.01-1.9-2.6-1.9-2.6Z"/></g></svg>