<?xml version="1.0" encoding="UTF-8"?><svg id="Complications" xmlns="http://www.w3.org/2000/svg" viewBox="0 0 32 32"><defs><style>.cls-1,.cls-2{fill:#fff;}.cls-3{fill:#fed4c2;}.cls-4{fill:#d99898;}.cls-2{stroke:#fff;stroke-linecap:round;stroke-miterlimit:10;}</style></defs><g id="ic_arthritis"><path class="cls-2" d="M17.84,28.54c.13,0,.22-.12,.18-.24-.32-1.04-1.45-5.18,.44-6.9,1.77-1.61,1.35-3.06,1.14-3.53-.04-.09-.15-.12-.25-.08-1.79,.92-3.66,.27-4.15,.08-.08-.03-.16-.02-.24,.03-1.66,1.07-3.47,.26-3.96,0-.08-.04-.17-.02-.23,.05-.3,.41-1.05,1.79,.76,3.44,1.89,1.72,.76,5.86,.44,6.9-.04,.12,.05,.24,.18,.24h5.68Z"/><path class="cls-1" d="M15.31,2.94c1.06,.44,1.72,.28,2.23,.23s1.16-.33,1.05,.64-.46,2.84,.15,4.01,2.82,1.88,2.55,4.55c-.25,2.5-3.32,4.43-5.91,1.94,0,0-2.83,1.93-4.7-.61s-.04-4.87,1.57-5.56,1.94-2.89,2.02-3.46,.09-1.43,.09-1.43c0,0-.1-.75,.96-.3Z"/><path class="cls-3" d="M12.63,15.46c2,.38,2.14-.92,3.37-.07s3.03,.49,3.44,.23,.78-.49,.92,.05-1.42,1.62-3.17,1.53-1.61-.94-3.07-.09c-1.1,.67-2.67-.08-3.41-.51s-1.51-1.66-.54-1.97,.94,.54,2.46,.83Z"/><g transform="matrix(1, 0, 0, 1, 1215.35, 373.57)"><path id="Tracciato_29-2" class="cls-4" d="M15.79,11.25c.39-.66,1.86-2.69,2.33-2.96s.42,.27,.42,.27l-.02,.51s2.61-2.98,3.41-3.4c.8-.42,.61,1.05,.24,1.36s-4.08,3.39-4.08,3.39c0,0-.21,.14-.1-.62s-.08-.45-.08-.45c0,0-2.52,2.56-2.13,1.9Z"/></g><g transform="matrix(1, 0, 0, 1, 1215.35, 373.57)"><path id="Tracciato_30-2" class="cls-4" d="M15.82,13.36c.8-.57,3.54-2.17,4.23-2.25s.35,.53,.35,.53l-.29,.58s4.56-2.13,5.7-2.21,.17,1.53-.41,1.7-6.49,1.85-6.49,1.85c0,0-.32,.05,.21-.77s.14-.56,.14-.56c0,0-4.25,1.69-3.45,1.12Z"/></g></g></svg>