<?xml version="1.0" encoding="UTF-8"?><svg id="Who_is_at_risk" xmlns="http://www.w3.org/2000/svg" viewBox="0 0 32 32"><defs><style>.cls-1{fill:#fff;}.cls-2{fill:#cab099;stroke:#fff;stroke-miterlimit:10;stroke-width:.5px;}</style></defs><g id="ic_children"><path class="cls-2" d="M22.39,19.82c-.24,0-.48,.04-.71,.09-.04-1.23-.56-2.45-1.38-3.43,.25-.13,.49-.26,.72-.41,1.53-1.02,2.45-2.59,2.07-4.48-.1-.48-.27-.97-.52-1.44,1.04-.45,1.66-1.53,1.44-2.63-.25-1.27-1.79-2.62-3.13-2.35-.84,.17-1.48,.83-1.78,1.61-1.19-.59-2.49-.86-3.73-.62-.58,.12-1.13,.32-1.66,.6-.55-.86-1.6-1.46-2.63-1.25-1.34,.27-2.25,2.09-2,3.36,.14,.7,.59,1.26,1.19,1.57-.4,.95-.54,1.97-.34,2.94,.28,1.41,1.17,2.42,2.39,3.08-.85,.96-1.39,2.17-1.39,3.41,0,.09,0,.17,.01,.25-.42-.19-.88-.3-1.34-.3-1.68,0-2.78,1.39-2.78,3.12s1.15,3.23,2.83,3.23c.6,0,1.17-.2,1.68-.52,.81-.02,1.87-.64,1.87-.64,1.37,.58,2.45-.65,2.45-.65,0,0,.43,.03,.65,.03,.08,0,.16,0,.25,0,0,0,1.07,1.24,2.45,.65,0,0,.92,.53,1.7,.63,.49,.31,1.06,.49,1.64,.49,1.68,0,2.83-1.5,2.83-3.23s-1.1-3.12-2.78-3.12Z"/><path class="cls-1" d="M19.67,14.89c-.11-1.26-1.9-2.61-3.35-2.48s-2.87,1.29-2.76,2.55c.05,.58,.43,1.08,.96,1.44-.29,.45-1.42,2.48,.41,4.43,0,0,1.4,1.49,.87,2.83h.6s-.39-.93,1.58-2.84c1.89-1.83,1.18-3.59,.83-4.49,.55-.35,.91-.83,.86-1.45Z"/><path d="M17.54,13.19c-.1,.28-.56,.75-.97,.75s-1.04-.45-1.05-.75,.5-.46,.92-.47,1.2,.2,1.1,.47Z"/><ellipse cx="14.65" cy="11.67" rx=".55" ry=".83" transform="translate(-.06 .08) rotate(-.31)"/><ellipse cx="18.44" cy="11.63" rx=".55" ry=".83" transform="translate(-1.57 2.98) rotate(-8.85)"/><circle class="cls-1" cx="14.7" cy="11.5" r=".25"/><circle class="cls-1" cx="18.38" cy="11.36" r=".25"/><ellipse class="cls-1" cx="8.14" cy="23.08" rx=".49" ry=".61" transform="translate(-14.54 13.88) rotate(-48.48)"/><ellipse class="cls-1" cx="8.86" cy="21.95" rx=".49" ry=".61" transform="translate(-8.05 5.39) rotate(-23.63)"/><ellipse class="cls-1" cx="10.16" cy="21.57" rx=".49" ry=".61" transform="translate(-3.2 1.82) rotate(-8.86)"/><ellipse class="cls-1" cx="11.29" cy="22.28" rx=".61" ry=".49" transform="translate(-13.03 27.99) rotate(-76.32)"/><ellipse class="cls-1" cx="20.73" cy="22.17" rx=".49" ry=".61" transform="translate(-5.87 7.55) rotate(-18.12)"/><ellipse class="cls-1" cx="21.92" cy="21.55" rx=".61" ry=".49" transform="translate(-2.05 40.8) rotate(-83.27)"/><ellipse class="cls-1" cx="23.23" cy="21.88" rx=".61" ry=".49" transform="translate(-5.64 35.48) rotate(-68.5)"/><ellipse class="cls-1" cx="23.85" cy="23.07" rx=".61" ry=".49" transform="translate(-9.31 24.18) rotate(-45.96)"/><path class="cls-1" d="M10.97,23.36c-.47-.32-.99-.41-1.32-.28-.35,.1-.67,.47-.79,.96-.16,.65,.09,1.27,.56,1.38,.37,.09,.52-.44,.98-.59,.55-.18,1.04,.24,1.25-.06,.24-.36-.06-.99-.68-1.41Z"/><path class="cls-1" d="M21.07,23.36c.47-.32,.99-.41,1.32-.28,.35,.1,.67,.47,.79,.96,.16,.65-.09,1.27-.56,1.38-.37,.09-.52-.44-.98-.59-.55-.18-1.04,.24-1.25-.06-.24-.36,.06-.99,.68-1.41Z"/><g><path class="cls-1" d="M12.87,7.26c-.87,.6-1.61,1.4-2.14,2.29-.27-.26-.46-.61-.54-1.02-.19-.95,.31-1.86,1.13-2.02,.61-.12,1.2,.2,1.55,.75Z"/><path class="cls-1" d="M22.98,7.68c.16,.8-.17,1.55-.75,1.88-.55-.84-1.31-1.61-2.18-2.21,.15-.56,.56-1,1.1-1.11,.81-.16,1.64,.49,1.82,1.44Z"/></g></g></svg>