<?xml version="1.0" encoding="UTF-8"?><svg id="Eldery" xmlns="http://www.w3.org/2000/svg" viewBox="0 0 32 32"><defs><style>.cls-1{fill:#664e3d;}.cls-2{fill:#8c6b53;}.cls-3{fill:#ddbf7c;}.cls-4{fill:#4c4c4c;}</style></defs><path class="cls-2" d="M17.72,12.87l1.05-1.85s.51-.92,1.33-.81c.82,.11,1.45,1.83,1.67,1.96,.26,.15,1.58-.68,.63-1.86-.79-.98-2.74-1.11-2.74-1.11,0,0-.61-.09-1.44-1.01-.15-.17-.41,.21-.41,.21,0,0-.55,.46-.06,.9,.71,.64,.3,1.72-.72,3.17,.08,0,.23,.02,.4,.12,.16,.09,.25,.22,.29,.28Z"/><path class="cls-4" d="M11.37,23.82c1.06-1.8,6.26-10.8,6.26-10.8,0,0-.17-.34-.66-.42l-6.25,10.82c.09,.03,.21,.07,.35,.15,.14,.09,.24,.18,.3,.26Z"/><path class="cls-3" d="M11.31,23.93c-.1,.17-.16,.27-.18,.3-.24,.37-.41,.42-.67,.23-.26-.19-.01-.57-.01-.57l.21-.37c.09,.03,.21,.07,.33,.15,.14,.09,.25,.18,.32,.26Z"/><path class="cls-1" d="M17.65,12.64s1.28-2.33,1.28-2.67c0-.34,.31-.32,.4-.3,.09,.03,.64,.29,.91,.52-.07-.01-.16-.03-.28-.03-.02,0-.29,0-.53,.12-.3,.14-.47,.4-.56,.56-.5,.81-.89,1.5-1.12,1.9-.01-.02-.03-.05-.05-.07-.01-.02-.03-.03-.04-.04Z"/></svg>