<?xml version="1.0" encoding="UTF-8"?><svg id="Who_is_at_risk" xmlns="http://www.w3.org/2000/svg" viewBox="0 0 32 32"><defs><style>.cls-1{fill:#fff;}.cls-2{fill:#dbdbdb;}.cls-3{fill:#999;}.cls-3,.cls-4{stroke:#fff;stroke-miterlimit:10;stroke-width:.5px;}.cls-4{fill:#d99898;}</style></defs><g id="ic_immune"><path class="cls-1" d="M24.62,6.76l-7.61-2.2c-.38-.11-.78-.11-1.16,0l-7.61,2.2c-.48,.14-.8,.58-.81,1.07-.09,7.63-1.38,14.7,8.56,19.58,.28,.14,.61,.14,.89,0,9.93-4.88,8.64-11.95,8.56-19.58,0-.5-.33-.93-.81-1.07Z"/><path class="cls-2" d="M16.95,26.45c-.13,.06-.27,.1-.41,.1V5.43c.18,0,.36,.02,.54,.08l6.76,1.92c.44,.13,.75,.53,.75,.99,.09,7.09,1.59,13.5-7.63,18.03Z"/><g><path class="cls-4" d="M23.24,6.5l-2.46-1.42c-.08-.04-.17-.04-.24,0l-2.46,1.42c-.08,.04-.13,.13-.13,.22v2.84c0,.07,.04,.14,.09,.19,0,0,.02,.02,.03,.02l2.46,1.42s.02,.01,.03,.01c.06,.03,.12,.03,.18,0,.01,0,.02,0,.03-.01l2.46-1.42s.02-.02,.03-.02c.06-.04,.09-.11,.09-.19v-2.84c0-.09-.04-.17-.12-.22Zm-2.71,2.41l-.48-.28c-.08-.04-.13-.13-.13-.22v-.56c0-.09,.05-.17,.13-.21l.48-.28c.07-.04,.17-.04,.24,0l.48,.28c.08,.04,.12,.13,.12,.21v.56c0,.09-.04,.17-.12,.22l-.48,.28c-.08,.04-.17,.04-.24,0Z"/><path class="cls-4" d="M20.23,11.73s-.02-.02-.03-.02l-2.46-1.42s-.02-.01-.03-.01c-.07-.03-.15-.03-.22,.01l-2.46,1.42c-.08,.04-.12,.13-.12,.21v2.84c0,.09,.04,.17,.12,.21l2.46,1.42c.08,.04,.17,.04,.25,0l2.46-1.42c.07-.04,.12-.12,.12-.21v-2.84c0-.07-.04-.14-.09-.19Zm-1.88,1.89c0,.09-.05,.17-.13,.21l-.48,.28c-.08,.04-.17,.04-.25,0l-.48-.28c-.08-.04-.12-.13-.12-.21v-.56c0-.09,.04-.17,.12-.21l.48-.28c.08-.04,.17-.04,.25,0l.48,.28c.08,.04,.13,.13,.13,.21v.56Z"/><path class="cls-3" d="M26.31,11.73s-.02-.02-.03-.02l-2.46-1.42s-.02-.01-.03-.01c-.07-.03-.15-.03-.22,.01l-2.46,1.42c-.08,.04-.12,.13-.12,.21v2.84c0,.09,.04,.17,.12,.21l2.46,1.42c.08,.04,.17,.04,.25,0l2.46-1.42c.07-.04,.12-.12,.12-.21v-2.84c0-.07-.04-.14-.09-.19Zm-1.88,1.89c0,.09-.05,.17-.13,.21l-.48,.28c-.08,.04-.17,.04-.25,0l-.48-.28c-.08-.04-.12-.13-.12-.21v-.56c0-.09,.04-.17,.12-.21l.48-.28c.08-.04,.17-.04,.25,0l.48,.28c.08,.04,.13,.13,.13,.21v.56Z"/></g></g></svg>