<?xml version="1.0" encoding="UTF-8"?><svg id="Who_is_at_risk" xmlns="http://www.w3.org/2000/svg" xmlns:xlink="http://www.w3.org/1999/xlink" viewBox="0 0 32 32"><defs><style>.cls-1{fill:#dbdbdb;}.cls-2{filter:url(#drop-shadow-1);}.cls-2,.cls-3,.cls-4{fill:#fff;}.cls-3{filter:url(#drop-shadow-2);}.cls-4{filter:url(#drop-shadow-3);}</style><filter id="drop-shadow-1" filterUnits="userSpaceOnUse"><feOffset dx="1" dy="1"/><feGaussianBlur result="blur" stdDeviation="1"/><feFlood flood-color="#000" flood-opacity=".15"/><feComposite in2="blur" operator="in"/><feComposite in="SourceGraphic"/></filter><filter id="drop-shadow-2" filterUnits="userSpaceOnUse"><feOffset dx="1" dy="1"/><feGaussianBlur result="blur-2" stdDeviation="1"/><feFlood flood-color="#000" flood-opacity=".15"/><feComposite in2="blur-2" operator="in"/><feComposite in="SourceGraphic"/></filter><filter id="drop-shadow-3" filterUnits="userSpaceOnUse"><feOffset dx="1" dy="1"/><feGaussianBlur result="blur-3" stdDeviation="1"/><feFlood flood-color="#000" flood-opacity=".15"/><feComposite in2="blur-3" operator="in"/><feComposite in="SourceGraphic"/></filter></defs><g id="ic_immunecomp"><path class="cls-2" d="M13.93,13.54l-.53-.19-3.35-.43-2.42-.95c-.05-1.29-.06-2.61-.12-3.94-.02-.45,.26-.86,.68-1.01l6.81-2.36c.34-.12,.71-.14,1.06-.06l4.14,.96-2.19,3.11-2.61,2.64-1.46,2.23Z"/><path class="cls-1" d="M15.62,11.09l-.19-5.92c.17,0,.33,0,.49,.05l3.89,.9-1.81,2.56-2.38,2.41Z"/><path class="cls-3" d="M21.53,6.18l3.07,.92c.43,.13,.72,.53,.72,.98,0,3.11,.22,6.13-.36,8.89l-5.55-1.47-4.41-1.7,1.49-2.13,2.73-2.58,2.3-2.9Z"/><path class="cls-1" d="M16.86,11.33l.11,3.22,2.46,.95,4.69,1.24c.52-2.59,.24-5.47,.24-8.43,0-.42-.27-.78-.67-.91l-2.48-.81-1.97,2.49-2.37,2.24Z"/><path class="cls-4" d="M23.95,17.89c-.67,3.41-2.55,6.47-7.53,8.91-.25,.12-.56,.12-.81,0-7.29-3.58-7.93-8.46-7.87-13.86l2.39,1.05,3.33,.53,5.03,2,5.47,1.37Z"/><path class="cls-1" d="M23.25,17.71c-.58,3.06-2.25,5.75-6.79,7.98-.12,.06-.25,.09-.37,.09V15.57l2.4,.95,4.76,1.19Z"/></g></svg>