<?xml version="1.0" encoding="UTF-8"?><svg id="Livello_20" xmlns="http://www.w3.org/2000/svg" viewBox="0 0 32 32"><defs><style>.cls-1{fill:#6382bd;}.cls-2{fill:#485f8a;}</style></defs><path class="cls-1" d="M11.24,11.24h.01l4.05,1.62,.32,.13,3.36-2.49,6.08,2.62,.99,.43c.01-2.08-.1-4.22-.12-6.41-.01-.57-.39-1.07-.94-1.23l-8.79-2.54c-.44-.13-.91-.13-1.35,0L6.06,5.91c-.56,.16-.93,.66-.94,1.24-.02,2.09-.13,4.14-.12,6.12l6.24-2.04h0Zm7.98,1.27l-3.34,2.48h-.01l-.57-.23-4.12-1.66-6.13,2.01c.29,5.69,2.04,10.79,9.96,14.68,.32,.16,.71,.16,1.03,0,7.77-3.81,9.6-8.8,9.94-14.35l-.95-.41-5.81-2.52Z"/><g><path class="cls-2" d="M25.03,15.02c-.24,5.36-1.81,10.15-9.26,13.81-.15,.07-.31,.11-.47,.11V14.75l.57,.23h.01l3.34-2.48,5.81,2.52Z"/><path class="cls-2" d="M25.06,13.12l-6.08-2.62-3.36,2.49-.32-.13V4.23c.21,0,.42,.03,.62,.09l8.17,2.36c.51,.15,.86,.61,.86,1.14,.02,1.8,.11,3.58,.11,5.3Z"/></g></svg>