<?xml version="1.0" encoding="UTF-8"?><svg id="Livello_20" xmlns="http://www.w3.org/2000/svg" viewBox="0 0 32 32"><defs><style>.cls-1{fill:#6382bd;}.cls-2{fill:#485f8a;}.cls-3{fill:#cbb6b3;}.cls-3,.cls-4{stroke:#b2a3a1;stroke-miterlimit:10;stroke-width:.25px;}.cls-4{fill:#b2a3a1;}</style></defs><path class="cls-1" d="M25.69,5.72l-8.8-2.54c-.44-.13-.91-.13-1.34,0L6.76,5.72c-.55,.16-.93,.67-.94,1.24-.1,8.82-1.59,17,9.89,22.63,.32,.16,.71,.16,1.03,0,11.48-5.64,9.99-13.81,9.89-22.64,0-.57-.38-1.08-.93-1.24Z"/><path class="cls-2" d="M16.47,28.65c-.15,.07-.32,.11-.47,.11V4.05c.21,0,.42,.03,.62,.09l8.17,2.36c.51,.15,.86,.61,.86,1.14,.1,8.19,1.48,15.78-9.18,21.01Z"/><path class="cls-3" d="M24.12,8.47l-1.87-1.08c-.06-.03-.13-.03-.18,0l-1.87,1.08c-.06,.03-.1,.1-.1,.16v2.16c0,.06,.03,.11,.07,.14,0,0,.02,.01,.02,.02l1.87,1.08s.02,0,.02,0c.04,.02,.09,.02,.14,0,0,0,.02,0,.02,0l1.87-1.08s.02-.01,.02-.02c.04-.03,.07-.09,.07-.14v-2.16c0-.07-.03-.13-.09-.16Zm-2.05,1.83l-.37-.21c-.06-.03-.1-.1-.1-.16v-.42c0-.06,.04-.13,.1-.16l.37-.21c.06-.03,.13-.03,.18,0l.37,.21c.06,.03,.09,.1,.09,.16v.42c0,.07-.03,.13-.09,.16l-.37,.21c-.06,.03-.13,.03-.18,0Z"/><path class="cls-3" d="M21.83,12.44s-.01-.01-.02-.02l-1.87-1.08s-.02,0-.02,0c-.05-.02-.11-.02-.16,0l-1.87,1.08c-.06,.03-.09,.1-.09,.16v2.16c0,.07,.03,.13,.09,.16l1.87,1.08c.06,.03,.13,.03,.19,0l1.87-1.08c.06-.03,.09-.09,.09-.16v-2.16c0-.06-.03-.11-.07-.14Zm-1.43,1.43c0,.06-.04,.13-.1,.16l-.36,.21c-.06,.03-.13,.03-.19,0l-.37-.21c-.06-.03-.09-.1-.09-.16v-.43c0-.06,.03-.13,.09-.16l.37-.21c.06-.03,.13-.03,.19,0l.36,.21c.06,.03,.1,.1,.1,.16v.43Z"/><path class="cls-4" d="M26.45,12.44s-.01-.01-.02-.02l-1.87-1.08s-.02,0-.02,0c-.05-.02-.11-.02-.16,0l-1.87,1.08c-.06,.03-.09,.1-.09,.16v2.16c0,.07,.03,.13,.09,.16l1.87,1.08c.06,.03,.13,.03,.19,0l1.87-1.08c.06-.03,.09-.09,.09-.16v-2.16c0-.06-.03-.11-.07-.14Zm-1.43,1.43c0,.06-.04,.13-.1,.16l-.36,.21c-.06,.03-.13,.03-.19,0l-.37-.21c-.06-.03-.09-.1-.09-.16v-.43c0-.06,.03-.13,.09-.16l.37-.21c.06-.03,.13-.03,.19,0l.36,.21c.06,.03,.1,.1,.1,.16v.43Z"/></svg>