<?xml version="1.0" encoding="UTF-8"?><svg id="Who_is_at_risk" xmlns="http://www.w3.org/2000/svg" viewBox="0 0 32 32"><defs><style>.cls-1{fill:#fafafa;}.cls-2,.cls-3{fill:#86c0dc;}.cls-3{stroke:#fafafa;stroke-miterlimit:10;stroke-width:.75px;}.cls-4{fill:#dbdbdb;opacity:.96;}</style></defs><g id="ic_infant"><path class="cls-3" d="M15.43,19.86c-.3-.77-.79-1.5-1.48-2.1-.15-.14-.32-.26-.49-.37-.19-.14-.39-.26-.6-.36-.23-.12-.47-.22-.71-.3-1.7-.58-3.56-.21-4.7,1.11-1.56,1.8-1.19,4.69,.83,6.45,2.03,1.76,4.94,1.72,6.51-.07,1.03-1.19,1.22-2.85,.65-4.35Zm-1.38,2.83c-1.07,1.23-3.06,1.25-4.43,.05-1.38-1.2-1.64-3.17-.57-4.4,.74-.85,1.93-1.13,3.05-.81-.07,.24,0,.52,.18,.71l1.21,1.2c.14,.14,.33,.21,.51,.21,.15,0,.3-.04,.42-.13,.49,1.07,.39,2.29-.36,3.16Z"/><path class="cls-2" d="M14.6,19.36s-.06,.07-.09,.09-.06,.05-.09,.08c-.12,.09-.27,.13-.42,.13-.18,0-.37-.07-.51-.21l-1.21-1.2c-.19-.2-.25-.47-.18-.71,.04-.12,.09-.22,.18-.31,.04-.04,.08-.07,.12-.1,.12-.07,.25-.11,.39-.11,.02,0,.04,0,.07,0,.17,0,.32,.07,.44,.2l.16,.16,1.05,1.04c.25,.25,.28,.65,.09,.92Z"/><path class="cls-3" d="M18.39,14.19c-3.93-3.6-5.97-7.88-7.36-6.36-.8,.88-.7,2.86,.28,5.07,.15,.34,.21,.71,.16,1.08-.19,1.42,.7,3.32,2.39,4.79,1.5,1.3,3.24,1.94,4.58,1.8,.37-.04,.73,.03,1.07,.17,2.56,1.05,4.87,1.09,5.74,.14,1.39-1.52-2.94-3.09-6.87-6.69Z"/><path class="cls-1" d="M23.27,13.44c.59-.33,1.1-.83,1.47-1.5,.66-1.2,.58-2.73-.19-3.86-1.41-2.06-4.25-2.19-5.86-.48-.25,.26-.45,.55-.6,.85-.11,.22-1.83,3.15-2.65,3.89-.44,.4-.53,1.06-.24,1.58,.49,.88,1.37,2.09,2.81,2.77,.63,.3,1.39,.15,1.85-.38,.49-.56,1.35-1.41,2.73-2.45,.21-.16,.45-.29,.69-.42Z"/><path class="cls-4" d="M24.32,9.99c0,1.42-.88,2.58-1.96,2.58s-1.06-1.27-.5-2.58c.43-1-.58-2.58,.5-2.58s1.96,1.15,1.96,2.58Z"/></g></svg>