<?xml version="1.0" encoding="UTF-8"?><svg id="Complications" xmlns="http://www.w3.org/2000/svg" viewBox="0 0 32 32"><defs><style>.cls-1{fill:#fff;}.cls-2{fill:#d99898;}.cls-3{fill:#c46769;}</style></defs><g id="ic_meningits"><path class="cls-1" d="M28.4,17.21c0-1.35-.58-2.51-1.42-3.12-.08-1.48-1.25-2.66-2.73-2.75-.67-1.13-1.89-1.89-3.3-1.89-.31,0-.61,.05-.9,.11-.52-.27-1.11-.43-1.74-.43-.96,0-1.83,.37-2.51,.95-.25-.06-.52-.09-.79-.09-1.37,0-2.56,.76-3.19,1.88-.09-.01-.18-.03-.27-.03-.83,0-1.53,.6-1.67,1.39-1.14,.68-1.9,1.86-1.9,3.21,0,2,2.12,3.86,4.28,4.03,.62,1.07,1.68,1.84,2.94,2.06,.53,.18,1.17,.28,1.88,.28,.49,0,.95-.05,1.37-.15,.01,.01,1.74-.92,1.71-.35-.04,.6,.31,1.68,.69,1.73,.37,.08,.74,.14,1.14,.14,2.23,0,4.03-.87,4.4-2.7,1.03-.04,1.87-.63,1.97-1.44,.05-.39-.09-.76-.34-1.08,.23-.53,.38-1.13,.38-1.78Z"/><g><path class="cls-2" d="M21.21,26c-.22,0-.48-.12-.65-.3-.14-.15-.21-.33-.2-.51,.02-.33-1.13-2.06-1.61-2.72-.38,.07-.78,.11-1.17,.11-.65,0-1.28-.09-1.82-.27-1.14-.19-2.17-.89-2.79-1.91-2.14-.23-4.07-2.09-4.07-3.96,0-1.26,.67-2.42,1.79-3.12,.2-.8,.92-1.38,1.75-1.38,.04,0,.09,0,.13,0,.67-1.07,1.83-1.72,3.08-1.72,.22,0,.44,.02,.67,.06,.68-.56,1.53-.87,2.39-.87,.56,0,1.11,.13,1.64,.39,.29-.06,.55-.09,.8-.09,1.3,0,2.49,.66,3.2,1.76,1.39,.14,2.49,1.25,2.62,2.65,.82,.65,1.33,1.79,1.33,3.02,0,.56-.11,1.11-.32,1.62,.23,.33,.33,.7,.28,1.06-.1,.81-.86,1.42-1.87,1.52-.41,1.58-1.99,2.52-4.27,2.52-.24,0-.49-.02-.77-.07,.12,.58,.23,1.04,.33,1.35,.08,.28,.07,.5-.05,.66-.09,.12-.24,.19-.42,.19Z"/><path class="cls-1" d="M18.71,9.64c.58,0,1.13,.15,1.61,.4,.27-.06,.54-.11,.83-.11,1.31,0,2.44,.71,3.06,1.75,1.37,.08,2.46,1.18,2.53,2.55,.78,.57,1.32,1.65,1.32,2.9,0,.61-.13,1.16-.35,1.65,.23,.3,.36,.64,.31,1-.09,.75-.87,1.3-1.83,1.34-.34,1.7-2.01,2.5-4.08,2.5-.37,0-.72-.06-1.06-.13,.12,.58,.27,1.25,.4,1.7,.12,.41-.04,.57-.26,.57-.28,0-.64-.26-.62-.57,.03-.53-1.73-2.97-1.74-2.99-.39,.08-.81,.14-1.27,.14-.65,0-1.25-.1-1.74-.26-1.17-.2-2.16-.91-2.73-1.91-2-.16-3.98-1.88-3.98-3.75,0-1.25,.71-2.35,1.77-2.98,.14-.74,.78-1.29,1.55-1.29,.09,0,.17,.01,.25,.02,.59-1.04,1.69-1.74,2.96-1.74,.25,0,.49,.03,.73,.08,.63-.54,1.43-.88,2.33-.88m0-.45c-.88,0-1.74,.3-2.45,.85-.21-.03-.41-.05-.61-.05-1.28,0-2.48,.65-3.2,1.72h-.01c-.91,0-1.7,.6-1.95,1.46-1.14,.75-1.82,1.95-1.82,3.26,0,1.98,1.92,3.88,4.16,4.17,.66,1.02,1.7,1.71,2.89,1.92,.55,.18,1.19,.28,1.85,.28,.36,0,.72-.03,1.08-.09,.51,.72,1.44,2.15,1.49,2.49-.02,.22,.08,.46,.26,.66,.21,.23,.52,.37,.81,.37,.25,0,.46-.1,.6-.29,.11-.15,.22-.42,.09-.86-.07-.25-.16-.59-.25-1.01,.16,.02,.32,.03,.48,.03,2.32,0,3.95-.94,4.44-2.54,1.04-.16,1.81-.82,1.92-1.7,.05-.38-.04-.76-.25-1.11,.19-.51,.29-1.05,.29-1.6,0-1.27-.5-2.43-1.34-3.13-.17-1.42-1.28-2.55-2.7-2.74-.75-1.12-1.98-1.78-3.33-1.78-.25,0-.5,.03-.78,.08-.54-.25-1.1-.38-1.67-.38h0Z"/></g><path class="cls-1" d="M12.73,11.96c.26,.43,.37,1.16,.17,1.53-.02-.04,0,.05,.02,.12,.07,.16,.18,.33,.27,.53-.36-.1-.74-.26-.76-.73,.13-.5,.07-.91,.3-1.45h0Z"/><path class="cls-1" d="M16.69,10.22c-.12,.6-.43,1.21-.57,1.75-.05,.57,.08,1.23,.08,1.84-.38-.57-.63-1.19-.58-1.91,.19-.7,.57-1.2,1.07-1.69h0Z"/><path class="cls-1" d="M16.06,11.4c.14,.69-.93,1.26-1.29,.56,.57-.07,.74-.31,1.29-.56h0Z"/><path class="cls-1" d="M19.38,13.29c-1.36-1.08,.12-2.75,1.08-3.52l.31,.37c-.95,.78-.28,1.11,.54,1.39-.45,0-.94,0-1.26-.4-.32-.5,.07-1.01,.41-1.35l.31,.37c-.82,.82-2.22,1.9-1.38,3.15h0Z"/><path class="cls-1" d="M24.04,11.4c.66,.78,.07,1.66-.79,1.94-.71-.41-1.4-.33-2.29-.24,.65-.21,1.34-.46,2.05-.35,.12,.05,.22,.01,.41,.25l-.3-.14c.78-.08,1.34-.67,.93-1.46h0Z"/><path class="cls-1" d="M23.18,13.1c.59,.21,1.07,1.19,.46,1.6-.1-.6-.46-.93-.46-1.6h0Z"/><path class="cls-1" d="M27.01,14.42c-.43,.32-.62,.25-1.02,.53-.32-.59,.65-1.02,1.02-.53h0Z"/><path class="cls-1" d="M12.66,20.03c-.05-2.48,1.9-3.79,4.23-2.99,.67,.38,1.07,.12,1.7-.13l-.12,.15c.22-.66,.59-1.37,1.33-1.56,.58-.09,1.38,.3,1.95,.41-.6,0-1.33-.23-1.88-.13-.57,.19-.83,.92-.99,1.49-.68,.35-1.41,.66-2.15,.23-2.14-.72-3.68,.31-4.06,2.52h0Z"/><path class="cls-1" d="M13.83,17.54c-.7-.1-.98-.58-1.57-.84,.59-.47,1.39,.24,1.57,.84h0Z"/><path class="cls-1" d="M15.25,17.06c-.43-.44-.63-.99-.62-1.59,.02-.18,.03-.45,.25-.56,.13,.73,.52,1.35,.37,2.15h0Z"/><path class="cls-1" d="M18.2,17.1c-.34-.4-.59-.54-.75-1.01-.03-.17-.01-.38,.14-.48,.05,.16,.13,.24,.21,.33,.32,.26,.61,.74,.4,1.17h0Z"/><path class="cls-1" d="M17.88,19.54c.49-1.11,2.27-.97,3.17-.93,1.14,0,1.59-.66,2.54-1.05,.38-.09,.73-.02,1.05,.07h-.07c.75-.21,.62-1.24,.56-1.87,.3,.73,.51,1.93-.53,2.24-.31-.05-.64-.09-.89,0-.51,.21-1.04,.81-1.65,.93-1.32,.48-3.13-.59-4.18,.61h0Z"/><path class="cls-1" d="M24.36,19.73c.68-.08,1.17-.11,1.68-.6,.47-.4,1.5-.87,1.89-.12-.63-.35-1.1,.18-1.58,.52-.5,.5-1.38,.56-1.99,.21h0Z"/><path class="cls-1" d="M26.5,18.96c.02-.64-.04-.83,.02-1.47,.61,.24,.64,1.27-.02,1.47h0Z"/><path class="cls-1" d="M22.02,18.76c.57-.16,.98,.63,.58,1.04-.36-.39-.41-.59-.58-1.04h0Z"/><path class="cls-1" d="M20.54,18.62c-.59-.31-1.08-1.47-.12-1.55-.06,.16-.12,.3-.12,.4,.1,.33,.32,.75,.23,1.15h0Z"/><path class="cls-1" d="M20.54,15.61c-.12-.32,.08-.71,.46-.71-.02,0-.08,.09-.02,.06,.05-.04,.09-.15,.16-.27,.22,.13,.33,.45,.06,.64-.06,.05-.17,.05-.21,.07-.04-.01-.21,.11-.46,.21h0Z"/><g id="Tracciato_28-2"><path class="cls-3" d="M12.03,10.41l-.1-.08c-.38-.38-1.68-1.88-1.81-2.32-.04-.14-.03-.25,.02-.32,.03-.04,.1-.09,.22-.09,.08,0,.16,.02,.17,.03l.11,.03c-.36-.54-1.22-1.88-1.36-2.43-.08-.31,0-.49,.08-.59,.09-.11,.22-.18,.36-.18,.16,0,.31,.09,.38,.23,.17,.33,1.79,3.67,1.79,3.67l.03,.05-.04,.09s-.07,.07-.16,.07-.24-.04-.43-.12c-.07-.03-.12-.05-.16-.06,1.13,1.83,1.08,1.91,1.05,1.97l-.03,.05h-.11Z"/><path class="cls-1" d="M9.73,4.55c.12,0,.23,.06,.29,.17,.17,.33,1.79,3.67,1.79,3.67,0,0,.03,.07-.09,.07-.07,0-.19-.03-.4-.11-.2-.08-.3-.11-.34-.11-.08,0,0,.08,0,.08,0,0,1.23,1.99,1.1,1.99-.01,0-.03-.02-.07-.05-.42-.42-1.67-1.88-1.78-2.28-.07-.24,.04-.29,.15-.29,.07,0,.13,.02,.13,.02l.38,.11s-1.33-1.95-1.5-2.63c-.11-.44,.13-.65,.35-.65m0-.2c-.17,0-.33,.08-.44,.22-.09,.12-.19,.33-.1,.68,.12,.5,.82,1.62,1.23,2.25-.02,0-.03,0-.05,0-.13,0-.23,.05-.3,.14-.08,.1-.09,.24-.04,.41,.14,.47,1.44,1.97,1.84,2.37,.06,.06,.12,.11,.21,.11h.12l.06-.11c.06-.11,.11-.19-.89-1.82,.15,.05,.26,.08,.35,.08,.14,0,.21-.06,.24-.11l.06-.09-.03-.14s-1.63-3.36-1.8-3.69c-.09-.17-.27-.28-.47-.28h0Z"/></g><g id="Tracciato_29-2"><path class="cls-3" d="M8.84,11.33c-.54,0-2.52-.18-2.92-.41-.14-.08-.21-.18-.21-.28,0-.17,.21-.27,.23-.28l.09-.05c-.76-.15-2.84-.59-3.34-.9-.24-.15-.24-.32-.21-.4,.08-.29,.61-.49,.93-.49,.07,0,.13,0,.18,.03,.35,.12,3.84,1.4,3.84,1.4l.07,.02,.02,.12c0,.12-.14,.22-.46,.35-.07,.03-.12,.05-.16,.07,2.15,.55,2.14,.63,2.13,.73v.09l-.18,.02h0Z"/><path class="cls-1" d="M3.42,8.61c.06,0,.1,0,.14,.02,.35,.12,3.83,1.4,3.83,1.4,0,0,.17,.09-.38,.3-.55,.22-.27,.22-.27,.22,0,0,2.66,.68,2.09,.68h0c-.59,0-2.5-.19-2.87-.4-.36-.21,.02-.39,.02-.39l.35-.18s-2.99-.58-3.58-.94c-.52-.32,.24-.71,.66-.71m0-.2h0c-.35,0-.92,.22-1.02,.56-.03,.09-.05,.32,.25,.51,.46,.29,2.21,.68,3.12,.86-.07,.06-.14,.15-.15,.28,0,.1,.04,.25,.26,.37,.42,.24,2.4,.42,2.97,.43,.23,0,.28-.12,.29-.19,.02-.19,.03-.27-1.91-.77,.24-.11,.4-.22,.41-.39,0-.12-.07-.2-.14-.23-.02,0-3.51-1.29-3.86-1.41-.06-.02-.13-.03-.21-.03h0Z"/></g><g id="Tracciato_30-2"><path class="cls-3" d="M10.31,10.53l-.11-.04c-.62-.28-2.82-1.5-3.17-1.97-.12-.16-.15-.3-.09-.41,.09-.18,.36-.19,.39-.19h.21c-.75-.54-3.05-2.19-3.47-2.81-.16-.23-.13-.39-.08-.48,.09-.17,.34-.27,.69-.27,.29,0,.66,.07,.83,.24,.34,.32,3.75,3.59,3.75,3.59l.05,.05-.02,.13c-.05,.11-.22,.16-.56,.16h-.3c-.05,0-.1,0-.13,0,2.23,1.74,2.19,1.86,2.16,1.93l-.02,.07h-.11Z"/><path class="cls-1" d="M4.66,4.46c.3,0,.63,.08,.77,.21,.34,.32,3.74,3.59,3.74,3.59,0,0,.14,.16-.45,.16-.04,0-.09,0-.14,0-.06,0-.12,0-.17,0-.53,0-.26,.13-.26,.13,0,0,2.41,1.89,2.17,1.89-.02,0-.05,0-.09-.03-.69-.31-2.81-1.51-3.13-1.94-.32-.43,.22-.44,.22-.44l.5-.03s-3.19-2.21-3.68-2.93c-.29-.43,.09-.6,.53-.6m0-.2c-.23,0-.63,.04-.78,.32-.06,.12-.1,.31,.09,.59,.4,.58,2.36,2.01,3.27,2.66-.11,.01-.31,.06-.4,.24-.07,.15-.04,.32,.1,.51,.36,.49,2.56,1.71,3.21,2,.08,.03,.13,.05,.18,.05h.14l.06-.14c.05-.15,.09-.25-1.96-1.87,.05,0,.1,0,.14,0,.39,0,.57-.06,.64-.22,.05-.11,.01-.22-.04-.28-.01-.02-3.42-3.29-3.76-3.61-.21-.2-.62-.27-.9-.27h0Z"/></g></g></svg>