<?xml version="1.0" encoding="UTF-8"?><svg id="Livello_18" xmlns="http://www.w3.org/2000/svg" viewBox="0 0 32 32"><defs><style>.cls-1{fill:#514a59;}.cls-2{fill:#7b7583;}</style></defs><path class="cls-2" d="M11.64,5.34s3.94,3.23,8.87,.26l8.99,15.93s-6.66,6.2-16.21,4.98c0,0-5.99-.85-10.78-5.24L11.64,5.34Z"/><path class="cls-1" d="M25.12,16.95c0,1.06-.48,1.98-1.21,2.59h0s-.05,.05-.13,.12c-.03,.01-.04,.03-.07,.05-.17,.13-.44,.33-.82,.54-.01,.03-.03,.04-.05,.04-.13,.09-.29,.19-.46,.28-.01,.01-.01,.03-.03,.03-.12,.04-.23,.12-.38,.19,0,0,0,.01-.01,.01-.11,.05-.21,.11-.33,.17-.12,.05-.24,.12-.38,.17t-.03,.01c-.91,.42-2,.84-3.28,1.11-.08,.03-.17,.05-.25,.07h-.05c-.44,.09-.91,.17-1.41,.23h-.01c-.08,.01-.17,.03-.27,.03-.96,.11-2.02,.11-3.14,0-.08-.01-.15-.01-.23-.03-.01,0-.04,0-.05-.01-1.02-.13-2-.46-2.87-1.01h-.01c-.47-.29-.91-.64-1.3-1.05-.07-.05-.13-.12-.19-.19-.07-.07-.13-.12-.19-.19-.07-.09-.12-.19-.19-.28-.05-.07-.11-.15-.16-.23-.09-.15-.17-.3-.24-.46-.05-.12-.11-.23-.15-.34-.03-.05-.05-.11-.07-.16-.01-.03-.01-.08-.03-.12-.12-.42-.21-.87-.21-1.34,0-2.51,2-4.53,4.46-4.53,0,0,1.19-.15,6.06,1.18,.32,.09,.66,.12,.99,.07,0,0,1.5-.29,2.89-.29,.72,0,1.41,.08,1.86,.3,1.13,.5,1.92,1.67,1.92,3.04Z"/><path class="cls-2" d="M23.72,18c0,.94-.36,1.78-.92,2.32h-.01s-.03,.05-.05,.05c-.03,.03-.07,.04-.11,.07-.08,.05-.16,.11-.25,.16-.03,.01-.07,.04-.09,.05-.01,.01-.01,.03-.03,.03-.12,.04-.23,.12-.38,.19,0,0,0,.01-.01,.01-.11,.05-.21,.11-.33,.17-.12,.05-.24,.12-.38,.17t-.03,.01c-.2,.09-.42,.19-.63,.28-.62,.25-1.31,.51-2.08,.7-.19,.05-.38,.11-.58,.15-.08,.03-.17,.05-.25,.07h-.01s-.01,.01-.03,.01h-.01c-.44,.08-.91,.16-1.41,.21h-.01c-.08,.01-.17,.03-.27,.03-.96,.11-2.02,.11-3.14,0-.08-.01-.15-.01-.23-.03,0,.01-.01,.01-.03,.03-.03-.01-.03-.03-.03-.04-1.02-.13-2-.47-2.87-1.02h-.01c-.04-.09-.07-.17-.11-.25-.13-.33-.23-.71-.27-1.11-.04-.38-.01-.74,.04-1.09,.01-.12,.04-.23,.05-.35,.01-.01,.01-.03,.01-.04,0-.03,.01-.04,.03-.07,.35-1.42,1.55-2.49,1.7-2.61-.07,.04-.63,.39-1.51,.58-.94,.2-.84-.5-.84-1s-.04-1.43,.86-1.7c.88-.28,1.02,.91,1.02,.91,0,0,.98-.51,1.55-.36,.92,.25,.2,2.81,.17,2.91,0,.01,.01,.01,.03,.03,.56-.2,1.19-.32,1.89-.32,.11,0,.23,.01,.35,.03t-.01-.03c-.27-1.17-.23-1.78-.12-2.12,.01-.05,.03-.11,.05-.15,.03-.07,.07-.12,.11-.15,.13-.16,.33-.27,.56-.27,.43,0,.78,.35,.78,.79,0,.24-.11,.46-.27,.6,.15,.21,.32,.63,.46,1,.13,.36,.23,.68,.23,.68,.31,.13,.56,.28,.8,.46h0l.09-.2c-.12-.59,.08-1.49,.29-1.41,.2,.07,.21-.08,.21-.08-.05-.2,.09-.24,.09-.24,.23-.05,.39-.2,.47-.46,.07-.27,.12-.21,.67-.13,.54,.07,.74-.2,.74-.2,1.15-.91,2.52-.01,2.52-.01,.88,.43,1.53,1.49,1.53,2.73Z"/><path class="cls-1" d="M20.49,21.53c-.62,.25-1.31,.51-2.08,.7,.04-.03,.08-.07,.11-.11,.19-.19,.39-.46,.52-.86,0,0,.55,.21,1.31,.27h.01s.08,.01,.12,0Z"/></svg>