<?xml version="1.0" encoding="UTF-8"?><svg id="Who_is_at_risk" xmlns="http://www.w3.org/2000/svg" viewBox="0 0 32 32"><defs><style>.cls-1{fill:#fff;}.cls-2{fill:#dbdbdb;}</style></defs><g id="ic_pregnant"><path class="cls-1" d="M12.05,6.35s3.56,2.92,8.03,.23l8.13,14.42s-6.02,5.62-14.67,4.51c0,0-5.42-.77-9.76-4.74L12.05,6.35Z"/><path class="cls-2" d="M24.26,16.86c0,.96-.44,1.79-1.09,2.34h0s-.05,.05-.12,.11c-.02,.01-.04,.02-.06,.05-.16,.12-.4,.3-.74,.49-.01,.02-.02,.04-.05,.04-.12,.08-.27,.17-.41,.25-.01,.01-.01,.02-.02,.02-.11,.04-.21,.11-.34,.17,0,0,0,.01-.01,.01-.1,.05-.19,.1-.3,.16-.11,.05-.22,.11-.34,.16t-.02,.01c-.82,.38-1.81,.76-2.97,1.01-.07,.02-.16,.05-.23,.06h-.05c-.4,.08-.82,.16-1.27,.2h-.01c-.07,.01-.16,.02-.24,.02-.87,.1-1.83,.1-2.84,0-.07-.01-.13-.01-.21-.02-.01,0-.04,0-.05-.01-.92-.12-1.81-.42-2.6-.91h-.01c-.42-.26-.82-.58-1.18-.95-.06-.05-.12-.11-.17-.17-.06-.06-.12-.11-.17-.17-.06-.08-.11-.17-.17-.25-.05-.06-.1-.13-.15-.2-.08-.13-.16-.28-.22-.42-.05-.11-.1-.2-.13-.31-.02-.05-.05-.1-.06-.14-.01-.02-.01-.07-.02-.11-.11-.38-.19-.79-.19-1.21,0-2.27,1.81-4.1,4.04-4.1,0,0,1.08-.13,5.48,1.07,.29,.08,.59,.11,.9,.06,0,0,1.36-.26,2.62-.26,.66,0,1.27,.07,1.69,.28,1.02,.46,1.73,1.51,1.73,2.75Z"/><path class="cls-1" d="M22.99,17.81c0,.85-.33,1.61-.84,2.1h-.01s-.02,.05-.05,.05c-.02,.02-.06,.04-.1,.06-.07,.05-.15,.1-.23,.15-.02,.01-.06,.04-.08,.05-.01,.01-.01,.02-.02,.02-.11,.04-.21,.11-.34,.17,0,0,0,.01-.01,.01-.1,.05-.19,.1-.3,.16-.11,.05-.22,.11-.34,.16t-.02,.01c-.18,.08-.38,.17-.57,.25-.56,.23-1.19,.46-1.88,.63-.17,.05-.34,.1-.52,.13-.07,.02-.16,.05-.23,.06h-.01s-.01,.01-.02,.01h-.01c-.4,.07-.82,.15-1.27,.19h-.01c-.07,.01-.16,.02-.24,.02-.87,.1-1.83,.1-2.84,0-.07-.01-.13-.01-.21-.02,0,.01-.01,.01-.02,.02-.02-.01-.02-.02-.02-.04-.92-.12-1.81-.42-2.6-.92h-.01c-.04-.08-.06-.16-.1-.23-.12-.3-.21-.64-.24-1.01-.04-.34-.01-.67,.04-.98,.01-.11,.04-.21,.05-.32,.01-.01,.01-.02,.01-.04,0-.02,.01-.04,.02-.06,.32-1.29,1.41-2.26,1.54-2.37-.06,.04-.57,.35-1.37,.52-.85,.18-.76-.45-.76-.91s-.04-1.3,.78-1.54c.8-.25,.92,.82,.92,.82,0,0,.89-.46,1.41-.33,.84,.23,.18,2.55,.16,2.63,0,.01,.01,.01,.02,.02,.51-.18,1.08-.29,1.71-.29,.1,0,.21,.01,.32,.02t-.01-.02c-.24-1.06-.21-1.61-.11-1.92,.01-.05,.02-.1,.05-.13,.02-.06,.06-.11,.1-.13,.12-.15,.3-.24,.51-.24,.39,0,.7,.32,.7,.72,0,.22-.1,.41-.24,.55,.13,.19,.29,.57,.41,.91,.12,.33,.21,.62,.21,.62,.28,.12,.51,.25,.73,.41h0l.08-.18c-.11-.53,.07-1.35,.27-1.27,.18,.06,.19-.07,.19-.07-.05-.18,.08-.22,.08-.22,.21-.05,.35-.18,.42-.41,.06-.24,.11-.19,.61-.12,.49,.06,.67-.18,.67-.18,1.04-.82,2.28-.01,2.28-.01,.8,.39,1.38,1.35,1.38,2.47Z"/><path class="cls-2" d="M20.07,21c-.56,.23-1.19,.46-1.88,.63,.04-.02,.07-.06,.1-.1,.17-.17,.35-.41,.47-.78,0,0,.5,.19,1.19,.24h.01s.07,.01,.11,0Z"/></g></svg>