<?xml version="1.0" encoding="UTF-8"?><svg id="Complications" xmlns="http://www.w3.org/2000/svg" viewBox="0 0 32 32"><defs><style>.cls-1{fill:#fff;}.cls-2{fill:#d99898;}.cls-3{fill:#b37c7c;}.cls-4{fill:#c98c8c;}</style></defs><g id="ic_pneumonia"><path class="cls-1" d="M15.42,5.57s-.2,1.24-.24,2.56c-.03,1.06,.08,2.18,.16,2.69,.17,1.14,.07,1.27-.27,1.54,0,0,.37,.79,.33,1.13,0,0,.28-.25,.36-.31s.25-.26,.62-.07l.38,.19s0-.36,.25-1.06c0,0-.81-.33-.74-2.74,.05-1.87,.04-3.25,0-3.87,0,0-.24,.05-.44,.04s-.4-.09-.4-.09Z"/><g><path class="cls-2" d="M7.37,25.7c-1.19,0-1.42-.79-1.43-.82h0s-.74-1.11-1.04-4.27c-.3-3.19,1.42-7.33,1.49-7.51,.12-.28,2.87-6.75,5.41-6.75,.49,0,.92,.19,1.28,.55,1.33,1.36,1.27,4.86,1.27,5,1.15,3.69,1.28,6.6,.38,8.59,.05,.61-.11,3.07-.83,3.63-.69,.39-2.13,.8-3.32,.8h0c-.28,0-.54-.02-.75-.07-.78,.45-1.28,.66-1.82,.78-.24,.04-.44,.06-.62,.06Z"/><path class="cls-1" d="M11.8,6.59c2.41,0,2.29,5.3,2.29,5.3,1.35,4.38,1.1,7.01,.37,8.55,.06,.19-.06,2.96-.73,3.48-.66,.38-2.07,.75-3.16,.75-.29,0-.57-.03-.79-.09-.82,.47-1.31,.68-1.84,.8-.21,.04-.4,.06-.56,.06-1.01,0-1.19-.64-1.19-.64,0,0-.74-1.06-1.04-4.22-.3-3.17,1.47-7.39,1.47-7.39,0,0,2.77-6.6,5.18-6.6m0-.5c-2.67,0-5.35,6.2-5.64,6.9-.07,.18-1.82,4.38-1.51,7.63,.28,2.89,.9,4.1,1.08,4.4,.15,.38,.63,.92,1.64,.92,.2,0,.42-.02,.65-.07,.57-.13,1.07-.34,1.83-.76,.21,.04,.45,.06,.71,.06,1.1,0,2.63-.36,3.41-.81l.03-.02,.03-.02c.79-.61,.95-2.96,.93-3.77,.9-2.03,.78-4.96-.37-8.73,0-.64-.03-3.76-1.34-5.1-.41-.42-.9-.63-1.45-.63h0Z"/></g><path class="cls-4" d="M14.1,11.9s.11-1.4-.31-2.9c-.28-1.27-.79-1.91-1.13-2.13-.66-.46-.44,1.14-.44,1.14,0,0,.27,2.61,1.89,3.89Z"/><g><path class="cls-2" d="M10.64,24.81c-.41,0-.63-.05-.64-.06l-.31-.07,.27-.16c2.59-1.49,3.57-2.63,4.05-3.18,.28-.32,.32-.47,.32-.47l.17-.59,.08,.61c.06,.49-.1,1.6-.35,2.39-.26,.81-.4,.85-1.71,1.22l-.15,.04c-.76,.22-1.36,.26-1.72,.26h0Z"/><path class="cls-1" d="M14.46,20.91c.06,.46-.1,1.57-.35,2.34-.25,.77-.33,.77-1.77,1.18-.72,.21-1.3,.26-1.69,.26s-.61-.05-.61-.05c2.48-1.42,3.48-2.51,4.08-3.2,.31-.36,.35-.52,.35-.52m.06-1.47l-.3,1.4s-.07,.16-.29,.42c-.47,.54-1.44,1.67-4.01,3.15l-.55,.31,.61,.15s.26,.06,.67,.06c.54,0,1.15-.09,1.76-.27l.15-.04c1.32-.38,1.52-.43,1.8-1.3,.26-.8,.42-1.94,.36-2.45l-.19-1.44h0Z"/></g><g><g><path class="cls-2" d="M24.55,25.89c-.18,0-.38-.02-.61-.06-.55-.12-1.05-.34-1.83-.78-.22,.05-.47,.07-.75,.07-1.19,0-2.63-.4-3.28-.78-.75-.58-.91-3.04-.86-3.65-.91-1.99-.77-4.9,.39-8.67-.01-.07-.08-3.56,1.25-4.93,.36-.37,.79-.55,1.27-.55,2.55,0,5.29,6.48,5.41,6.75,.07,.17,1.79,4.32,1.49,7.51-.3,3.18-1.04,4.28-1.08,4.34h0s-.24,.75-1.39,.75Z"/><path class="cls-1" d="M20.13,6.79c2.41,0,5.18,6.6,5.18,6.6,0,0,1.77,4.22,1.47,7.39-.3,3.17-1.04,4.22-1.04,4.22,0,0-.18,.64-1.19,.64-.16,0-.35-.02-.56-.06-.53-.12-1.02-.33-1.84-.8-.23,.06-.5,.09-.79,.09-1.09,0-2.5-.37-3.16-.75-.67-.52-.79-3.29-.73-3.48-.73-1.54-.98-4.17,.37-8.55,0,0-.12-5.3,2.29-5.3m0-.5c-.56,0-1.04,.21-1.45,.63-1.31,1.34-1.35,4.46-1.34,5.1-1.15,3.76-1.28,6.7-.37,8.73-.03,.81,.14,3.16,.93,3.77l.03,.02,.03,.02c.78,.45,2.31,.81,3.41,.81,.26,0,.5-.02,.71-.06,.76,.43,1.26,.64,1.81,.76,.25,.05,.47,.07,.67,.07,1.02,0,1.49-.54,1.64-.92,.18-.3,.81-1.51,1.08-4.4,.31-3.25-1.43-7.45-1.5-7.63-.3-.71-2.97-6.9-5.64-6.9h0Z"/></g><g><path class="cls-2" d="M21.67,25.12c-.48,0-1.24-.06-2.17-.32l-.15-.04c-1.31-.38-1.45-.41-1.71-1.22-.24-.75-.56-2.29-.5-2.79,0-.05,.05-.1,.1-.11,0,0,.02,0,.03,0,.04,0,.08,.02,.11,.06,0,0,.32,.51,.62,.87,.57,.66,1.63,1.89,4.09,3.31,.05,.03,.07,.08,.06,.13-.01,.05-.05,.09-.11,.1,0,0-.13,.01-.37,.01Z"/><path class="cls-1" d="M17.27,20.76s.32,.52,.63,.88c.6,.7,1.65,1.91,4.12,3.34,0,0-.13,.01-.35,.01-.42,0-1.2-.05-2.14-.32-1.44-.41-1.53-.41-1.77-1.18-.25-.77-.56-2.27-.5-2.73m0-.25s-.04,0-.05,0c-.1,.02-.18,.11-.2,.21-.07,.52,.26,2.06,.51,2.84,.28,.87,.48,.93,1.8,1.3l.15,.04c.94,.27,1.72,.33,2.21,.33,.24,0,.38-.01,.38-.01,.11-.01,.2-.09,.22-.2,.02-.11-.03-.21-.12-.27-2.45-1.41-3.49-2.63-4.06-3.28-.3-.34-.61-.85-.61-.85-.05-.07-.13-.12-.21-.12h0Z"/></g></g><path class="cls-4" d="M17.86,12.08s-.11-1.4,.31-2.9c.28-1.27,.79-1.91,1.13-2.13,.66-.46,.44,1.14,.44,1.14,0,0-.27,2.61-1.89,3.89Z"/><path class="cls-4" d="M11.55,23.41c.94-.69,1.79-1.42,2.26-1.96,.74-.83,1.35-2.29,1.23-4.72-.07-1.31-8.63-3.05-8.89-2.29-.33,.97-.74,2.39-.94,3.85,0,0,1.03,1.92,2.75,3.26,2.17,1.69,3.58,1.87,3.58,1.87Z"/><path class="cls-3" d="M5.22,18.29c-.1,.78-.14,1.56-.07,2.29,.3,3.17,1.04,4.22,1.04,4.22,0,0,.25,.87,1.75,.58,.87-.16,2.32-1.03,3.61-1.97,0,0-1.71-.37-3.57-1.87s-2.75-3.25-2.75-3.25Z"/></g></svg>