<?xml version="1.0" encoding="UTF-8"?><svg id="Complications" xmlns="http://www.w3.org/2000/svg" viewBox="0 0 32 32"><defs><style>.cls-1{fill:#fff;}.cls-2{fill:#c46769;}.cls-3{fill:#bf5456;}.cls-4{fill:#b04e50;}</style></defs><g id="ic_sepsis"><g><g><path class="cls-2" d="M15.18,24.07c-.92,0-1.9-.18-2.82-.53-1.46-.55-2.7-1.45-3.47-2.55-.79-1.11-1.01-2.29-.63-3.32,.52-1.39,2.1-2.25,4.12-2.25,.92,0,1.9,.18,2.82,.53,1.46,.55,2.7,1.45,3.47,2.54,.79,1.11,1.01,2.29,.63,3.32-.52,1.39-2.1,2.25-4.12,2.25Z"/><path class="cls-1" d="M12.38,15.59c.88,0,1.82,.17,2.76,.52,2.96,1.11,4.75,3.63,4,5.64-.51,1.37-2.08,2.14-3.96,2.14-.88,0-1.82-.17-2.76-.52-2.96-1.11-4.75-3.63-4-5.64,.51-1.37,2.08-2.14,3.96-2.14m0-.35c-2.1,0-3.74,.91-4.29,2.37-.82,2.18,1.07,4.91,4.21,6.09,.95,.35,1.94,.54,2.88,.54,2.1,0,3.74-.91,4.29-2.37,.82-2.18-1.07-4.91-4.21-6.09-.95-.35-1.94-.54-2.88-.54h0Z"/></g><ellipse class="cls-3" cx="13.78" cy="19.74" rx="2.78" ry="4.1" transform="translate(-9.54 25.73) rotate(-69.47)"/><path class="cls-4" d="M17.63,21.18c.04-.57-.8-2.27-1.93-3.03s-2.04-1.1-4.32-1.16c.93-.34,2.16-.32,3.39,.14,2.12,.79,3.41,2.6,2.87,4.04Z"/></g><g><g><path class="cls-2" d="M18.44,18.51c-1.81,0-3.23-.74-3.8-1.98-.93-2.03,.73-4.78,3.69-6.13,1.06-.48,2.19-.74,3.25-.74,1.81,0,3.24,.74,3.8,1.98,.93,2.03-.73,4.78-3.69,6.13-1.06,.48-2.19,.74-3.25,.74Z"/><path class="cls-1" d="M21.58,9.84c1.68,0,3.09,.66,3.64,1.88,.89,1.95-.73,4.59-3.61,5.9-1.08,.49-2.17,.72-3.18,.72-1.68,0-3.09-.66-3.64-1.88-.89-1.95,.73-4.59,3.61-5.9,1.08-.49,2.17-.72,3.18-.72m0-.35h0c-1.09,0-2.24,.26-3.32,.76-1.46,.66-2.65,1.67-3.37,2.85-.74,1.22-.89,2.47-.41,3.52,.59,1.31,2.07,2.08,3.96,2.08,1.09,0,2.24-.26,3.32-.76,1.46-.66,2.65-1.67,3.37-2.85,.74-1.22,.89-2.47,.41-3.52-.59-1.31-2.07-2.08-3.96-2.08h0Z"/></g><ellipse class="cls-3" cx="20.01" cy="14.09" rx="4.1" ry="2.78" transform="translate(-4.04 9.56) rotate(-24.47)"/><path class="cls-4" d="M23.75,12.39c-.38-.43-2.17-1.04-3.51-.77s-2.22,.66-3.88,2.24c.42-.9,1.31-1.75,2.49-2.3,2.06-.94,4.25-.57,4.89,.83Z"/></g><g><g><path class="cls-2" d="M13.91,14.18c-1.21,0-2.53-.56-3.64-1.53-1.97-1.73-2.6-4.24-1.41-5.6,.49-.56,1.21-.85,2.09-.85,1.21,0,2.53,.56,3.64,1.53,1.97,1.73,2.6,4.24,1.41,5.6-.49,.56-1.21,.85-2.09,.85Z"/><path class="cls-1" d="M10.95,6.38c1.11,0,2.41,.51,3.52,1.48,1.9,1.67,2.53,4.06,1.4,5.35-.47,.54-1.17,.79-1.96,.79-1.11,0-2.41-.51-3.52-1.48-1.9-1.67-2.53-4.06-1.4-5.35,.47-.54,1.17-.79,1.96-.79m0-.35h0c-.92,0-1.71,.32-2.23,.91-1.25,1.43-.61,4.05,1.43,5.84,1.14,1,2.51,1.57,3.75,1.57,.92,0,1.71-.32,2.23-.91,.62-.71,.81-1.72,.51-2.85-.28-1.08-.97-2.14-1.94-2.99-1.14-1-2.51-1.57-3.75-1.57h0Z"/></g><ellipse class="cls-3" cx="12.43" cy="10.19" rx="2.22" ry="3.28" transform="translate(-3.43 12.81) rotate(-48.74)"/><path class="cls-4" d="M9.96,8.03c.81-.92,2.57-.7,3.93,.49,.32,.28,.6,.6,.81,.92,.47,.7-.75-1-2.44-1.42s-2.57,.3-2.3,0Z"/></g></g></svg>