<svg xmlns="http://www.w3.org/2000/svg" xmlns:xlink="http://www.w3.org/1999/xlink" width="493.642" height="274.48" viewBox="0 0 493.642 274.48">
  <defs>
    <filter id="Tracciato_67" x="0" y="0" width="493.642" height="274.48" filterUnits="userSpaceOnUse">
      <feOffset dy="3" input="SourceAlpha"/>
      <feGaussianBlur stdDeviation="3" result="blur"/>
      <feFlood flood-opacity="0.161"/>
      <feComposite operator="in" in2="blur"/>
      <feComposite in="SourceGraphic"/>
    </filter>
  </defs>
  <g id="cow" transform="translate(9 6)">
    <g transform="matrix(1, 0, 0, 1, -9, -6)" filter="url(#Tracciato_67)">
      <path id="Tracciato_67-2" data-name="Tracciato 67" d="M1433.789,369.473s13.524-9.489,22.5-21.14,6.094-14.561,13.407-25.465c-1.2-.325-17.882-7.6,0-27.413s13.436-14.19,13.436-14.19-8.315,23.989-4.791,31.726c0,0,18.866-11.172,37.681-8.876,1.025-.753-6.186-21-6.186-21l14.563,14.437s8.085,7.46,7.549,17.659l15.694,18.828,60.533,18.748,97.045,15.674s23.282,3.789,55.631,1.775,35.405-1.7,58.469,0,54.074,1.555,58.441,36.311,7.421,70.485,7.421,70.485,11.208-5.218,8.537,25.031-13.727,19.721-13.727,19.721-13.394,5.555-2.431-50.237c0,0,8.427-70.514-24.2-89.883,0,0,9.663,9.181,5.775,31.681s-7.458,36.367-10.8,73.389,14.072,20.89,5.37,38.5c0,0,1.858,2.88-33,6.127-29.21,2.721-52,11.034-85.229.333-5.169-7.932-5.224-6.359-5.608-9.913l-70.932,3.453s-2.87,6.588-31.856,6.127-49.167-5.642-81.312-6.127c-17.519-.264-27.6-16.69-23.409-25.725,3.438-8.558,7.051-7.028,38.211-4.554-26.714-33.266-44.871-87.181-44.871-87.181s-11.625,6.727-24.609,5.566-54.958-6.547-58.75-7.743-11.168-2.979-13.08-11.742.215-15.9,1.158-16.752,3.571-1.241,5.83-2.672S1433.789,369.473,1433.789,369.473Z" transform="translate(-1409.49 -274.53)" fill="#fff"/>
    </g>
    <path id="Tracciato_71" data-name="Tracciato 71" d="M1464.584,304.551c3.312-3.5-4.884-23.217-4.884-23.217l11.72,12.941s8.08,8.291,4.517,18.613C1474.295,318.141,1457.4,315.812,1464.584,304.551Z" transform="translate(-1365.358 -274.118)" fill="#464646"/>
    <path id="Tracciato_70" data-name="Tracciato 70" d="M1444.153,314.141c-3.251-.728-12.48-9.264-2.834-20.269,5.062-6,11.411-14.068,11.411-14.068s-7.737,19.49-2.446,27.363a38.292,38.292,0,0,0-3,3.045C1445.748,311.956,1444.153,314.141,1444.153,314.141Z" transform="translate(-1391.77 -273.174)" fill="#464646"/>
    <path id="Tracciato_69" data-name="Tracciato 69" d="M1733.635,422.238c.974-.8,4.977-.9,11.312,2.335,5.935,3,14.385,10.117,11.619,31.735-5.24-.209-26.617-3.869-26.617-3.869s-9.557-4.023-9.639-8.81-1.237-13.453,1.978-14.878C1725.519,428.071,1732.661,423.042,1733.635,422.238Z" transform="translate(-1716.66 -330.641)" fill="#848484"/>
    <path id="Tracciato_72" data-name="Tracciato 72" d="M1.871,5.953c-2.913-1.876-3-6.162,3.911-5.945,0,0,3.911,4.053,2.9,6.132S4.784,7.829,1.871,5.953Z" transform="matrix(0.996, -0.087, 0.087, 0.996, 14.295, 102.19)" fill="#212121"/>
    <path id="Tracciato_74" data-name="Tracciato 74" d="M1473.163,429.98c-2-2.521,2.8-5.205,4.042-6.9,9.083-6.395,8.1-6.891,17.006-8.914,14.916-2.312,15.6-3.583,32.034-2.81-5.609-2.965-22.766-10.706-20.142-42.667s21.062-48.39,14-27.946,5.268,49.869,15.277,66.108c4.206,6.832,2.986,4.5,2.986,4.5s6.219,11.609-17.158,10.585a97.549,97.549,0,0,0-30.378,2.93C1480.522,427.712,1475.529,427.995,1473.163,429.98Z" transform="translate(-1161.575 -190.214)" fill="#e8e8e8"/>
    <path id="Tracciato_78" data-name="Tracciato 78" d="M148.326,94.479c1.4-2.223-2.828-4.362-4.107-6.058-10.914-7.311-36.721-14.849-49.942-15.5-45.394-2.9-29.446-21.988-52.184-42.7S0,0,0,0,23.258,41.457,32.933,55.4A299.75,299.75,0,0,0,55.319,83.132a88.3,88.3,0,0,0,22.995,2.145c11.927-.793,36.171.112,46.812,2.954S145.452,92.952,148.326,94.479Z" transform="matrix(0.996, 0.087, -0.087, 0.996, 101.236, 127.621)" fill="#e8e8e8"/>
    <path id="Tracciato_75" data-name="Tracciato 75" d="M1476.034,381.539c1.019.989,2.969,4.533,3.99,5.257s7.7,3.1,14.668,3.514c0,0-1.891-15.555-2.354-16.028,0,0-5.828,1.444-10.212,2.462a29.668,29.668,0,0,0-6.731,2.28A2.822,2.822,0,0,0,1476.034,381.539Z" transform="translate(-1160.545 -137.645)" fill="#e0ca8d"/>
    <path id="Tracciato_77" data-name="Tracciato 77" d="M22.442,9.959c-1.379,2.124-3.742,2.932-4.96,3.723S8.309,17.069,0,17.523C0,17.523,2.254.517,2.806,0c0,0,6.946,1.579,12.171,2.692A37.485,37.485,0,0,1,23,5.185,6.261,6.261,0,0,1,22.442,9.959Z" transform="matrix(0.996, 0.087, -0.087, 0.996, 215.646, 229.017)" fill="#e0ca8d"/>
    <path id="Tracciato_79" data-name="Tracciato 79" d="M1556.622,340.293c-4.222,18.454-8.419,49.079-8.451,55.864,0,0-.9,9.151-13.447,4.7-3.268-.868-7.294,7.821-13.125,3.716-6.048-4.244-9.262-17.374-2.442-22.689,12.246-9.542,7.378-22.219,5.606-24.009s-.967-2.253-9.324,0c-3.132.96-6.811-4.3-6.223-12.28,2.88-10.111-4.267-13.539,1.806-17.478s13.586-5.91,23.367-5.822c5.32.048,7.039,4.641,15.754,6.173S1556.622,340.293,1556.622,340.293Z" transform="translate(-1119.583 -200.946)" fill="#343434"/>
    <path id="Tracciato_80" data-name="Tracciato 80" d="M60.758,27.656c-2.873,19.191-8.34,49.26-8.34,49.26s-.088,9.06-13.758,4.518c-3.559-.885-7.944,7.981-14.3,3.792C17.778,80.9,14.277,67.5,21.706,62.072c13.337-9.738,4.59-15.391,2.659-17.217S17.978,44.8,8.876,47.1C5.465,48.077-1.512,37.11.293,26.159S9.481,7.316,16.1,3.3,28.648-.633,38.3,1.264,45.962,6,55.454,7.563c2.364.389,15.511-7.606,12.9,0S60.758,27.656,60.758,27.656Z" transform="translate(160.406 138.229) rotate(-90)" fill="#343434"/>
    <path id="Tracciato_83" data-name="Tracciato 83" d="M40.5,28.111c-1.435,9.082-23.748-3.08-25.521-4.728S-1.528,24.34.13,14.458,6.23,0,6.23,0s6.187,7.415,15.045,9.127a43.476,43.476,0,0,0,16.282,0s14.582-3.7,12.19,3.162S41.937,19.029,40.5,28.111Z" transform="translate(104.673 128.886) rotate(-90)" fill="#343434"/>
    <path id="Tracciato_84" data-name="Tracciato 84" d="M26.65,19.981C25.215,29.062,2.9,16.9,1.129,15.252S-1.435-.715,7.423,1A43.476,43.476,0,0,0,23.705,1s14.582-3.7,12.19,3.162S28.085,10.9,26.65,19.981Z" transform="translate(64.304 74.814) rotate(-68)" fill="#343434"/>
    <path id="Tracciato_82" data-name="Tracciato 82" d="M44.665,38.134c1.7,18.824,17.7,28.715.316,42.281s-14.7-.183-22.868,1.534-6.531,8.215-11.752,3.9c-5.416-4.458.213-12.789-5.537-22.978s-1.8-24.2-.314-35.474S-5.605,5.181,3.562,1.516s9.688.217,17.62,2.17S35.588-3.7,41.3,5.973,42.967,19.31,44.665,38.134Z" transform="matrix(0.934, 0.358, -0.358, 0.934, 309.875, 109.921)" fill="#343434"/>
    <path id="Tracciato_81" data-name="Tracciato 81" d="M90.264,11.377c9.4,5.23,4.771,11.929-2.072,18.653s-13.426,2.478-19.878,9.983S62.97,57.876,62.97,57.876s-.106,6.817-16.528,3.4c-4.276-.666-9.544,6.005-17.172,2.853-7.914-3.258-12.119-13.34-3.195-17.422C42.1,39.379,31.589,35.126,29.27,33.751s-7.673-.042-18.607,1.688c-4.1.737-12.478-7.516-10.31-15.755S11.389,5.505,19.336,2.48,34.414-.476,46,.951s14.213-1.02,20.612,4.74S80.867,6.146,90.264,11.377Z" transform="translate(252.499 224.508) rotate(-151)" fill="#343434"/>
    <path id="Tracciato_85" data-name="Tracciato 85" d="M3.134,0C5.429,0,7.308,2.6,7.308,4.9S6.391,9.6,4.1,9.6,0,6.651,0,4.356.839,0,3.134,0Z" transform="matrix(0.788, 0.616, -0.616, 0.788, 80.86, 56.733)" fill="#fff"/>
    <path id="Tracciato_86" data-name="Tracciato 86" d="M1.592,0A2.368,2.368,0,0,1,3.656,2.418c-.012,1.143-.483,2.346-1.632,2.358S-.012,3.329,0,2.186.443.012,1.592,0Z" transform="matrix(0.788, 0.616, -0.616, 0.788, 78.98, 60.464)"/>
  </g>
</svg>
